<svg version="1.2" xmlns="http://www.w3.org/2000/svg" viewBox="0 0 300 76" width="300" height="76"><style>tspan{white-space:pre}.a{font-size: 40px;fill: #ff0000;font-weight: 400;font-family: "Asul-Regular", "Asul"}</style><path  d="m0.5 59.2h3.4c1.1 0 2.3-1.5 2.3-2.5v-36.5c0-1-1.2-2.4-2.3-2.4h-3.4v-8.8h27.5v8.8h-3.5c-1.1 0-2.3 1.4-2.3 2.4v36.5c0 1 1.2 2.5 2.3 2.5h3.5v8.4h-27.5z"/><path  d="m133.4 59.2h2.8c1.2 0 2.5-1.5 2.5-2.5v-36.5c0-1-1.3-2.4-2.5-2.4h-2.8v-8.8h26.6c15.7 0 24.2 5.5 24.2 18.6 0 12.7-9 18.5-24.8 18.5h-4.8v13.1h6.7v8.4h-27.9zm25.8-21.7c7 0 8.8-4 8.8-9.6 0-5.5-1.8-9.4-8.8-9.4h-4.9v19z"/><path  d="m189.3 59.2h2.8c1.2 0 2.5-1.5 2.5-2.5v-36.5c0-1-1.3-2.4-2.5-2.4h-2.8v-8.8h25.5c20.9 0 31.8 9.1 31.8 29 0 19.6-11.1 29.6-32.2 29.6h-25.1zm25.1-0.4c10.6 0 15.7-6.3 15.7-20.3 0-14-5.1-20-15.7-20h-3.9v40.3z"/><path  d="m251.9 59.2h2.9c1.1 0 2.4-1.5 2.4-2.5v-36.5c0-1-1.3-2.4-2.4-2.4h-2.9v-8.8h47.6v18.1h-9.3l-1.5-8.6h-15.6v16.4h7.6l0.7-5.5h8.6v20.3h-8.6l-0.7-5.8h-7.6v15.3h6.8v8.4h-28z"/><text style="transform:matrix(.95,0,0,2.319,35.874,69.716)" ><tspan x="0" y="0" class="a">H
</tspan></text><text style="transform:matrix(.95,0,0,2.319,61.888,70.853)" ><tspan x="0" y="0" class="a">A
</tspan></text><text style="transform:matrix(.95,0,0,2.319,85.426,70.853)" ><tspan x="0" y="0" class="a">T
</tspan></text><text style="transform:matrix(.95,0,0,2.319,101.53,70.853)" ><tspan x="0" y="0" class="a">E
</tspan></text></svg>